<svg width="40" height="40" viewBox="0 0 40 40" fill="none" xmlns="http://www.w3.org/2000/svg">
    <path
        d="M0 9.99999C0 4.47714 4.47715 0 10 0H29.9953C35.5182 0 39.9953 4.47715 39.9953 10V29.9953C39.9953 35.5182 35.5182 39.9953 29.9953 39.9953H9.99999C4.47714 39.9953 0 35.5182 0 29.9953V9.99999Z"
        fill="#7B3306" fill-opacity="0.3" />
    <g clip-path="url(#clip0_11_3566)">
        <path
            d="M28.0901 24.9945L21.4277 13.3353C21.2825 13.079 21.0718 12.8658 20.8172 12.7175C20.5627 12.5691 20.2733 12.491 19.9787 12.491C19.684 12.491 19.3947 12.5691 19.1401 12.7175C18.8855 12.8658 18.6749 13.079 18.5296 13.3353L11.8672 24.9945C11.7204 25.2488 11.6434 25.5374 11.644 25.831C11.6447 26.1247 11.723 26.4129 11.8709 26.6666C12.0189 26.9202 12.2313 27.1302 12.4866 27.2754C12.7419 27.4205 13.031 27.4955 13.3246 27.4929H26.6493C26.9416 27.4926 27.2286 27.4154 27.4815 27.2691C27.7345 27.1228 27.9445 26.9125 28.0905 26.6593C28.2365 26.4062 28.3133 26.1191 28.3132 25.8268C28.3132 25.5346 28.2362 25.2475 28.0901 24.9945Z"
            stroke="#FFB900" stroke-width="1.66559" stroke-linecap="round"
            stroke-linejoin="round" />
        <path d="M19.9873 17.4993V20.8304" stroke="#FFB900" stroke-width="1.66559"
            stroke-linecap="round" stroke-linejoin="round" />
        <path d="M19.9873 24.1616H19.9956" stroke="#FFB900" stroke-width="1.66559"
            stroke-linecap="round" stroke-linejoin="round" />
    </g>
    <defs>
        <clipPath id="clip0_11_3566">
            <rect width="19.9871" height="19.9871" fill="white"
                transform="translate(9.99365 10.0042)" />
        </clipPath>
    </defs>
</svg>
