<svg width="40" height="40" viewBox="0 0 40 40" fill="none" xmlns="http://www.w3.org/2000/svg">
    <path
        d="M0 9.99999C0 4.47714 4.47715 0 10 0H29.9953C35.5182 0 39.9953 4.47715 39.9953 10V29.9953C39.9953 35.5182 35.5182 39.9953 29.9953 39.9953H9.99999C4.47714 39.9953 0 35.5182 0 29.9953V9.99999Z"
        fill="#FEF3C6" />
    <g clip-path="url(#clip0_11_2158)">
        <path
            d="M28.0902 24.9945L21.4278 13.3353C21.2826 13.079 21.0719 12.8658 20.8173 12.7175C20.5628 12.5691 20.2734 12.491 19.9788 12.491C19.6841 12.491 19.3948 12.5691 19.1402 12.7175C18.8856 12.8658 18.675 13.079 18.5297 13.3353L11.8673 24.9945C11.7205 25.2488 11.6435 25.5374 11.6442 25.831C11.6448 26.1247 11.7231 26.4129 11.871 26.6666C12.019 26.9202 12.2314 27.1302 12.4867 27.2754C12.742 27.4205 13.0311 27.4955 13.3247 27.4929H26.6495C26.9417 27.4926 27.2287 27.4154 27.4817 27.2691C27.7346 27.1228 27.9446 26.9125 28.0906 26.6593C28.2366 26.4062 28.3134 26.1191 28.3133 25.8268C28.3133 25.5346 28.2363 25.2475 28.0902 24.9945Z"
            stroke="#E17100" stroke-width="1.66559" stroke-linecap="round"
            stroke-linejoin="round" />
        <path d="M19.9871 17.4993V20.8304" stroke="#E17100" stroke-width="1.66559"
            stroke-linecap="round" stroke-linejoin="round" />
        <path d="M19.9871 24.1616H19.9954" stroke="#E17100" stroke-width="1.66559"
            stroke-linecap="round" stroke-linejoin="round" />
    </g>
    <defs>
        <clipPath id="clip0_11_2158">
            <rect width="19.9871" height="19.9871" fill="white"
                transform="translate(9.99355 10.0042)" />
        </clipPath>
    </defs>
</svg>
