<svg width="430" height="931" viewBox="0 0 430 931" fill="none" xmlns="http://www.w3.org/2000/svg">
<g opacity="0.1">
<mask id="path-1-inside-1_11_3032" fill="white">
<path d="M39.9951 103.992C39.9951 68.6476 68.6474 39.9953 103.992 39.9953C139.336 39.9953 167.989 68.6476 167.989 103.992C167.989 139.336 139.336 167.989 103.992 167.989C68.6474 167.989 39.9951 139.336 39.9951 103.992Z"/>
</mask>
<path d="M103.992 167.989V166.637C69.3942 166.637 41.3473 138.59 41.3473 103.992H39.9951H38.6429C38.6429 140.083 67.9006 169.341 103.992 169.341V167.989ZM167.989 103.992H166.636C166.636 138.59 138.589 166.637 103.992 166.637V167.989V169.341C140.083 169.341 169.341 140.083 169.341 103.992H167.989ZM103.992 39.9953V41.3475C138.589 41.3475 166.636 69.3944 166.636 103.992H167.989H169.341C169.341 67.9008 140.083 38.6431 103.992 38.6431V39.9953ZM103.992 39.9953V38.6431C67.9006 38.6431 38.6429 67.9008 38.6429 103.992H39.9951H41.3473C41.3473 69.3944 69.3942 41.3475 103.992 41.3475V39.9953Z" fill="#4A7BA7" mask="url(#path-1-inside-1_11_3032)"/>
<mask id="path-3-inside-2_11_3032" fill="white">
<path d="M254.022 127.983C254.022 101.477 275.509 79.9906 302.014 79.9906C328.52 79.9906 350.007 101.477 350.007 127.983C350.007 154.488 328.52 175.975 302.014 175.975C275.509 175.975 254.022 154.488 254.022 127.983Z"/>
</mask>
<path d="M302.014 175.975V174.623C276.256 174.623 255.374 153.741 255.374 127.983H254.022H252.67C252.67 155.235 274.762 177.327 302.014 177.327V175.975ZM350.007 127.983H348.654C348.654 153.741 327.773 174.623 302.014 174.623V175.975V177.327C329.266 177.327 351.359 155.235 351.359 127.983H350.007ZM302.014 79.9906V81.3428C327.773 81.3428 348.654 102.224 348.654 127.983H350.007H351.359C351.359 100.731 329.266 78.6384 302.014 78.6384V79.9906ZM302.014 79.9906V78.6384C274.762 78.6384 252.67 100.731 252.67 127.983H254.022H255.374C255.374 102.224 276.256 81.3428 302.014 81.3428V79.9906Z" fill="#F9B730" mask="url(#path-3-inside-2_11_3032)"/>
<mask id="path-5-inside-3_11_3032" fill="white">
<path d="M79.9907 771.679C79.9907 727.502 115.804 691.689 159.981 691.689C204.159 691.689 239.972 727.502 239.972 771.679C239.972 815.857 204.159 851.67 159.981 851.67C115.804 851.67 79.9907 815.857 79.9907 771.679Z"/>
</mask>
<path d="M159.981 851.67V850.318C116.551 850.318 81.3429 815.11 81.3429 771.679H79.9907H78.6385C78.6385 816.604 115.057 853.022 159.981 853.022V851.67ZM239.972 771.679H238.62C238.62 815.11 203.412 850.318 159.981 850.318V851.67V853.022C204.906 853.022 241.324 816.604 241.324 771.679H239.972ZM159.981 691.689V693.041C203.412 693.041 238.62 728.248 238.62 771.679H239.972H241.324C241.324 726.755 204.906 690.336 159.981 690.336V691.689ZM159.981 691.689V690.336C115.057 690.336 78.6385 726.755 78.6385 771.679H79.9907H81.3429C81.3429 728.248 116.551 693.041 159.981 693.041V691.689Z" fill="#4A7BA7" mask="url(#path-5-inside-3_11_3032)"/>
<mask id="path-7-inside-4_11_3032" fill="white">
<path d="M278.002 747.667C278.002 716.739 303.074 691.667 334.002 691.667C364.93 691.667 390.002 716.739 390.002 747.667C390.002 778.595 364.93 803.667 334.002 803.667C303.074 803.667 278.002 778.595 278.002 747.667Z"/>
</mask>
<path d="M334.002 803.667V802.315C303.821 802.315 279.355 777.848 279.355 747.667H278.002H276.65C276.65 779.342 302.328 805.019 334.002 805.019V803.667ZM390.002 747.667H388.65C388.65 777.848 364.183 802.315 334.002 802.315V803.667V805.019C365.677 805.019 391.354 779.342 391.354 747.667H390.002ZM334.002 691.667V693.02C364.183 693.02 388.65 717.486 388.65 747.667H390.002H391.354C391.354 715.993 365.677 690.315 334.002 690.315V691.667ZM334.002 691.667V690.315C302.328 690.315 276.65 715.993 276.65 747.667H278.002H279.355C279.355 717.486 303.821 693.02 334.002 693.02V691.667Z" fill="#F9B730" mask="url(#path-7-inside-4_11_3032)"/>
<path d="M42.9995 186.332L386.997 279.498" stroke="#4A7BA7"/>
<path d="M85.9995 745.328L343.998 372.664" stroke="#F9B730"/>
<path d="M300.998 652.162L128.999 465.83" stroke="#4A7BA7"/>
</g>
</svg>
