<svg width="350" height="812" viewBox="0 0 350 812" fill="none" xmlns="http://www.w3.org/2000/svg">
    <mask id="path-1-inside-1_56_3" fill="white">
        <path
            d="M0 63.9967C0 28.6523 28.6523 0 63.9967 0C99.3411 0 127.993 28.6523 127.993 63.9967C127.993 99.3411 99.3411 127.993 63.9967 127.993C28.6523 127.993 0 99.3411 0 63.9967Z" />
    </mask>
    <path
        d="M63.9967 127.993V126.641C29.3991 126.641 1.35219 98.5943 1.35219 63.9967H0H-1.35219C-1.35219 100.088 27.9055 129.346 63.9967 129.346V127.993ZM127.993 63.9967H126.641C126.641 98.5943 98.5943 126.641 63.9967 126.641V127.993V129.346C100.088 129.346 129.346 100.088 129.346 63.9967H127.993ZM63.9967 0V1.35219C98.5943 1.35219 126.641 29.3991 126.641 63.9967H127.993H129.346C129.346 27.9055 100.088 -1.35219 63.9967 -1.35219V0ZM63.9967 0V-1.35219C27.9055 -1.35219 -1.35219 27.9055 -1.35219 63.9967H0H1.35219C1.35219 29.3991 29.3991 1.35219 63.9967 1.35219V0Z"
        fill="#4A7BA7" mask="url(#path-1-inside-1_56_3)" />
    <mask id="path-3-inside-2_56_3" fill="white">
        <path
            d="M214.027 87.9876C214.027 61.4822 235.514 39.9953 262.019 39.9953C288.525 39.9953 310.011 61.4822 310.011 87.9876C310.011 114.493 288.525 135.98 262.019 135.98C235.514 135.98 214.027 114.493 214.027 87.9876Z" />
    </mask>
    <path
        d="M262.019 135.98V134.628C236.261 134.628 215.379 113.746 215.379 87.9876H214.027H212.675C212.675 115.24 234.767 137.332 262.019 137.332V135.98ZM310.011 87.9876H308.659C308.659 113.746 287.778 134.628 262.019 134.628V135.98V137.332C289.271 137.332 311.364 115.24 311.364 87.9876H310.011ZM262.019 39.9953V41.3475C287.778 41.3475 308.659 62.229 308.659 87.9876H310.011H311.364C311.364 60.7354 289.271 38.6431 262.019 38.6431V39.9953ZM262.019 39.9953V38.6431C234.767 38.6431 212.675 60.7354 212.675 87.9876H214.027H215.379C215.379 62.229 236.261 41.3475 262.019 41.3475V39.9953Z"
        fill="#F9B730" mask="url(#path-3-inside-2_56_3)" />
    <mask id="path-5-inside-3_56_3" fill="white">
        <path
            d="M39.9956 731.684C39.9956 687.506 75.8086 651.693 119.986 651.693C164.164 651.693 199.977 687.506 199.977 731.684C199.977 775.862 164.164 811.675 119.986 811.675C75.8086 811.675 39.9956 775.862 39.9956 731.684Z" />
    </mask>
    <path
        d="M119.986 811.675V810.322C76.5554 810.322 41.3478 775.115 41.3478 731.684H39.9956H38.6434C38.6434 776.608 75.0618 813.027 119.986 813.027V811.675ZM199.977 731.684H198.625C198.625 775.115 163.417 810.322 119.986 810.322V811.675V813.027C164.911 813.027 201.329 776.608 201.329 731.684H199.977ZM119.986 651.693V653.045C163.417 653.045 198.625 688.253 198.625 731.684H199.977H201.329C201.329 686.76 164.911 650.341 119.986 650.341V651.693ZM119.986 651.693V650.341C75.0618 650.341 38.6434 686.76 38.6434 731.684H39.9956H41.3478C41.3478 688.253 76.5554 653.045 119.986 653.045V651.693Z"
        fill="#4A7BA7" mask="url(#path-5-inside-3_56_3)" />
    <mask id="path-7-inside-4_56_3" fill="white">
        <path
            d="M238.007 707.672C238.007 676.744 263.079 651.672 294.007 651.672C324.935 651.672 350.007 676.744 350.007 707.672C350.007 738.6 324.935 763.672 294.007 763.672C263.079 763.672 238.007 738.6 238.007 707.672Z" />
    </mask>
    <path
        d="M294.007 763.672V762.32C263.826 762.32 239.36 737.853 239.36 707.672H238.007H236.655C236.655 739.347 262.332 765.024 294.007 765.024V763.672ZM350.007 707.672H348.655C348.655 737.853 324.188 762.32 294.007 762.32V763.672V765.024C325.682 765.024 351.359 739.347 351.359 707.672H350.007ZM294.007 651.672V653.024C324.188 653.024 348.655 677.491 348.655 707.672H350.007H351.359C351.359 675.997 325.682 650.32 294.007 650.32V651.672ZM294.007 651.672V650.32C262.332 650.32 236.655 675.997 236.655 707.672H238.007H239.36C239.36 677.491 263.826 653.024 294.007 653.024V651.672Z"
        fill="#F9B730" mask="url(#path-7-inside-4_56_3)" />
    <path d="M3.00439 146.337L347.002 239.503" stroke="#4A7BA7" />
    <path d="M46.0044 705.333L304.003 332.669" stroke="#F9B730" />
    <path d="M261.003 612.167L89.0039 425.835" stroke="#4A7BA7" />
</svg>
