<svg width="40" height="40" viewBox="0 0 40 40" fill="none" xmlns="http://www.w3.org/2000/svg">
<path d="M0 14C0 6.26801 6.26801 0 14 0H25.9953C33.7273 0 39.9953 6.26801 39.9953 14V25.9953C39.9953 33.7273 33.7273 39.9953 25.9953 39.9953H14C6.26801 39.9953 0 33.7273 0 25.9953V14Z" fill="#59168B" fill-opacity="0.3"/>
<g clip-path="url(#clip0_11_4221)">
<path d="M18.3218 19.9978H21.653" stroke="#C27AFF" stroke-width="1.66559" stroke-linecap="round" stroke-linejoin="round"/>
<path d="M18.3218 16.6665H21.653" stroke="#C27AFF" stroke-width="1.66559" stroke-linecap="round" stroke-linejoin="round"/>
<path d="M21.653 27.4928V24.9944C21.653 24.5527 21.4775 24.1291 21.1651 23.8167C20.8528 23.5043 20.4291 23.3289 19.9874 23.3289C19.5456 23.3289 19.122 23.5043 18.8096 23.8167C18.4973 24.1291 18.3218 24.5527 18.3218 24.9944V27.4928" stroke="#C27AFF" stroke-width="1.66559" stroke-linecap="round" stroke-linejoin="round"/>
<path d="M14.9904 18.3321H13.3248C12.883 18.3321 12.4594 18.5076 12.147 18.82C11.8347 19.1323 11.6592 19.556 11.6592 19.9977V25.8273C11.6592 26.269 11.8347 26.6927 12.147 27.005C12.4594 27.3174 12.883 27.4929 13.3248 27.4929H26.6495C27.0912 27.4929 27.5149 27.3174 27.8272 27.005C28.1396 26.6927 28.3151 26.269 28.3151 25.8273V17.4993C28.3151 17.0576 28.1396 16.6339 27.8272 16.3216C27.5149 16.0092 27.0912 15.8337 26.6495 15.8337H24.9839" stroke="#C27AFF" stroke-width="1.66559" stroke-linecap="round" stroke-linejoin="round"/>
<path d="M14.9902 27.4928V14.168C14.9902 13.7263 15.1657 13.3026 15.4781 12.9903C15.7904 12.6779 16.2141 12.5024 16.6558 12.5024H23.3182C23.7599 12.5024 24.1836 12.6779 24.4959 12.9903C24.8083 13.3026 24.9838 13.7263 24.9838 14.168V27.4928" stroke="#C27AFF" stroke-width="1.66559" stroke-linecap="round" stroke-linejoin="round"/>
</g>
<defs>
<clipPath id="clip0_11_4221">
<rect width="19.9871" height="19.9871" fill="white" transform="translate(9.99365 10.0042)"/>
</clipPath>
</defs>
</svg>
