<svg width="50" height="50" viewBox="0 0 50 50" fill="none" xmlns="http://www.w3.org/2000/svg">
    <g filter="url(#filter0_dd_11_2589)">
        <path
            d="M5 15C5 7.268 11.268 1 19 1H30.9742C38.7062 1 44.9742 7.26801 44.9742 15V26.9742C44.9742 34.7062 38.7062 40.9742 30.9742 40.9742H19C11.268 40.9742 5 34.7062 5 26.9742V15Z"
            fill="#F9B730" shape-rendering="crispEdges" />
        <path d="M24.9871 23.4855V13.4919" stroke="white" stroke-width="1.66559"
            stroke-linecap="round" stroke-linejoin="round" />
        <path
            d="M32.4823 23.4856V26.8168C32.4823 27.2585 32.3068 27.6822 31.9944 27.9945C31.6821 28.3069 31.2584 28.4824 30.8167 28.4824H19.1575C18.7158 28.4824 18.2921 28.3069 17.9798 27.9945C17.6674 27.6822 17.4919 27.2585 17.4919 26.8168V23.4856"
            stroke="white" stroke-width="1.66559" stroke-linecap="round" stroke-linejoin="round" />
        <path d="M20.8231 19.3215L24.9871 23.4855L29.1511 19.3215" stroke="white"
            stroke-width="1.66559" stroke-linecap="round" stroke-linejoin="round" />
    </g>
    <defs>
        <filter id="filter0_dd_11_2589" x="0" y="0" width="49.9742" height="49.9741"
            filterUnits="userSpaceOnUse" color-interpolation-filters="sRGB">
            <feFlood flood-opacity="0" result="BackgroundImageFix" />
            <feColorMatrix in="SourceAlpha" type="matrix"
                values="0 0 0 0 0 0 0 0 0 0 0 0 0 0 0 0 0 0 127 0" result="hardAlpha" />
            <feMorphology radius="2" operator="erode" in="SourceAlpha"
                result="effect1_dropShadow_11_2589" />
            <feOffset dy="2" />
            <feGaussianBlur stdDeviation="2" />
            <feComposite in2="hardAlpha" operator="out" />
            <feColorMatrix type="matrix" values="0 0 0 0 0 0 0 0 0 0 0 0 0 0 0 0 0 0 0.1 0" />
            <feBlend mode="normal" in2="BackgroundImageFix" result="effect1_dropShadow_11_2589" />
            <feColorMatrix in="SourceAlpha" type="matrix"
                values="0 0 0 0 0 0 0 0 0 0 0 0 0 0 0 0 0 0 127 0" result="hardAlpha" />
            <feMorphology radius="1" operator="erode" in="SourceAlpha"
                result="effect2_dropShadow_11_2589" />
            <feOffset dy="4" />
            <feGaussianBlur stdDeviation="3" />
            <feComposite in2="hardAlpha" operator="out" />
            <feColorMatrix type="matrix" values="0 0 0 0 0 0 0 0 0 0 0 0 0 0 0 0 0 0 0.1 0" />
            <feBlend mode="normal" in2="effect1_dropShadow_11_2589"
                result="effect2_dropShadow_11_2589" />
            <feBlend mode="normal" in="SourceGraphic" in2="effect2_dropShadow_11_2589"
                result="shape" />
        </filter>
    </defs>
</svg>
