<svg width="24" height="24" viewBox="0 0 24 24" fill="none" xmlns="http://www.w3.org/2000/svg">
    <path
        d="M14.9877 20.9828V12.9894C14.9877 12.7244 14.8824 12.4703 14.695 12.2829C14.5077 12.0955 14.2535 11.9902 13.9885 11.9902H9.99179C9.72679 11.9902 9.47265 12.0955 9.28527 12.2829C9.09789 12.4703 8.99261 12.7244 8.99261 12.9894V20.9828"
        stroke="#4E4E50" stroke-width="1.99836" stroke-linecap="round" stroke-linejoin="round" />
    <path
        d="M2.99756 9.99171C2.99749 9.70102 3.06084 9.41381 3.18319 9.15012C3.30555 8.88643 3.48396 8.65261 3.70598 8.46497L10.7002 2.46989C11.0609 2.16505 11.5179 1.9978 11.9902 1.9978C12.4624 1.9978 12.9194 2.16505 13.2801 2.46989L20.2744 8.46497C20.4964 8.65261 20.6748 8.88643 20.7971 9.15012C20.9195 9.41381 20.9828 9.70102 20.9828 9.99171V18.9843C20.9828 19.5143 20.7722 20.0226 20.3975 20.3974C20.0227 20.7721 19.5144 20.9827 18.9844 20.9827H4.99592C4.46592 20.9827 3.95763 20.7721 3.58286 20.3974C3.2081 20.0226 2.99756 19.5143 2.99756 18.9843V9.99171Z"
        stroke="#4E4E50" stroke-width="1.99836" stroke-linecap="round" stroke-linejoin="round" />
</svg>
