<svg width="24" height="24" viewBox="0 0 24 24" fill="none" xmlns="http://www.w3.org/2000/svg">
    <path
        d="M15.9869 12.9893L21.2056 16.4684C21.2808 16.5185 21.3682 16.5472 21.4585 16.5515C21.5487 16.5559 21.6385 16.5356 21.7181 16.493C21.7978 16.4503 21.8644 16.3868 21.9109 16.3093C21.9573 16.2318 21.9819 16.1431 21.9819 16.0528V7.86351C21.982 7.7756 21.9588 7.68925 21.9148 7.61316C21.8707 7.53707 21.8074 7.47395 21.7312 7.43016C21.655 7.38637 21.5685 7.36347 21.4806 7.36377C21.3927 7.36407 21.3065 7.38756 21.2305 7.43186L15.9869 10.4913"
        stroke="#4E4E50" stroke-width="1.99836" stroke-linecap="round" stroke-linejoin="round" />
    <path
        d="M13.9885 5.99512H3.99672C2.89305 5.99512 1.99836 6.88981 1.99836 7.99347V15.9869C1.99836 17.0906 2.89305 17.9853 3.99672 17.9853H13.9885C15.0922 17.9853 15.9869 17.0906 15.9869 15.9869V7.99347C15.9869 6.88981 15.0922 5.99512 13.9885 5.99512Z"
        stroke="#4E4E50" stroke-width="1.99836" stroke-linecap="round" stroke-linejoin="round" />
</svg>
