<svg width="16" height="16" viewBox="0 0 16 16" fill="none" xmlns="http://www.w3.org/2000/svg">
<g clip-path="url(#clip0_5_734)">
<path d="M13.3282 6.66419C13.3282 9.99158 9.63699 13.4569 8.39746 14.5272C8.28199 14.614 8.14143 14.661 7.99695 14.661C7.85247 14.661 7.71191 14.614 7.59644 14.5272C6.35691 13.4569 2.66565 9.99158 2.66565 6.66419C2.66565 5.25024 3.22734 3.8942 4.22715 2.89439C5.22696 1.89457 6.583 1.33289 7.99695 1.33289C9.4109 1.33289 10.7669 1.89457 11.7667 2.89439C12.7666 3.8942 13.3282 5.25024 13.3282 6.66419Z" stroke="#4E4E50" stroke-width="1.33282" stroke-linecap="round" stroke-linejoin="round"/>
<path d="M7.99698 8.66339C9.10113 8.66339 9.99622 7.7683 9.99622 6.66415C9.99622 5.56001 9.10113 4.66492 7.99698 4.66492C6.89283 4.66492 5.99774 5.56001 5.99774 6.66415C5.99774 7.7683 6.89283 8.66339 7.99698 8.66339Z" stroke="#4E4E50" stroke-width="1.33282" stroke-linecap="round" stroke-linejoin="round"/>
</g>
<defs>
<clipPath id="clip0_5_734">
<rect width="15.9939" height="15.9939" fill="white"/>
</clipPath>
</defs>
</svg>
