<svg width="40" height="40" viewBox="0 0 40 40" fill="none" xmlns="http://www.w3.org/2000/svg">
    <path
        d="M0 14C0 6.26801 6.26801 0 14 0H25.9953C33.7273 0 39.9953 6.26801 39.9953 14V25.9953C39.9953 33.7273 33.7273 39.9953 25.9953 39.9953H14C6.26801 39.9953 0 33.7273 0 25.9953V14Z"
        fill="#DBEAFE" />
    <g clip-path="url(#clip0_11_2790)">
        <path
            d="M28.3151 15.8337L20.8274 20.6032C20.5733 20.7507 20.2847 20.8285 19.9909 20.8285C19.697 20.8285 19.4084 20.7507 19.1543 20.6032L11.6592 15.8337"
            stroke="#155DFC" stroke-width="1.66559" stroke-linecap="round"
            stroke-linejoin="round" />
        <path
            d="M26.6495 13.3354H13.3248C12.4049 13.3354 11.6592 14.0812 11.6592 15.001V24.9946C11.6592 25.9145 12.4049 26.6602 13.3248 26.6602H26.6495C27.5694 26.6602 28.3151 25.9145 28.3151 24.9946V15.001C28.3151 14.0812 27.5694 13.3354 26.6495 13.3354Z"
            stroke="#155DFC" stroke-width="1.66559" stroke-linecap="round"
            stroke-linejoin="round" />
    </g>
    <defs>
        <clipPath id="clip0_11_2790">
            <rect width="19.9871" height="19.9871" fill="white"
                transform="translate(9.99353 10.0042)" />
        </clipPath>
    </defs>
</svg>
