<svg width="40" height="40" viewBox="0 0 40 40" fill="none" xmlns="http://www.w3.org/2000/svg">
    <path
        d="M0 14C0 6.26801 6.26801 0 14 0H25.9953C33.7273 0 39.9953 6.26801 39.9953 14V25.9953C39.9953 33.7273 33.7273 39.9953 25.9953 39.9953H14C6.26801 39.9953 0 33.7273 0 25.9953V14Z"
        fill="#FEF3C6" />
    <path
        d="M18.5447 27.4929C18.6909 27.7461 18.9011 27.9563 19.1543 28.1025C19.4075 28.2487 19.6947 28.3256 19.9871 28.3256C20.2794 28.3256 20.5666 28.2487 20.8198 28.1025C21.073 27.9563 21.2833 27.7461 21.4295 27.4929"
        stroke="#E17100" stroke-width="1.66559" stroke-linecap="round" stroke-linejoin="round" />
    <path
        d="M12.7101 22.7675C12.6013 22.8868 12.5295 23.035 12.5035 23.1943C12.4774 23.3536 12.4982 23.5171 12.5633 23.6648C12.6284 23.8125 12.7351 23.9381 12.8702 24.0263C13.0054 24.1145 13.1633 24.1615 13.3247 24.1616H26.6495C26.8109 24.1617 26.9688 24.1148 27.1041 24.0268C27.2393 23.9387 27.3461 23.8133 27.4114 23.6657C27.4767 23.5181 27.4977 23.3547 27.4718 23.1954C27.4459 23.0361 27.3744 22.8877 27.2657 22.7683C26.1581 21.6266 24.9839 20.4132 24.9839 16.6665C24.9839 15.3412 24.4574 14.0703 23.5204 13.1332C22.5833 12.1961 21.3123 11.6697 19.9871 11.6697C18.6619 11.6697 17.3909 12.1961 16.4539 13.1332C15.5168 14.0703 14.9903 15.3412 14.9903 16.6665C14.9903 20.4132 13.8153 21.6266 12.7101 22.7675Z"
        stroke="#E17100" stroke-width="1.66559" stroke-linecap="round" stroke-linejoin="round" />
</svg>
