<svg width="24" height="24" viewBox="0 0 24 24" fill="none" xmlns="http://www.w3.org/2000/svg">
<path d="M10.2596 20.9827C10.435 21.2864 10.6872 21.5387 10.991 21.7141C11.2948 21.8894 11.6394 21.9818 11.9902 21.9818C12.3409 21.9818 12.6855 21.8894 12.9893 21.7141C13.2931 21.5387 13.5453 21.2864 13.7207 20.9827" stroke="white" stroke-width="1.99836" stroke-linecap="round" stroke-linejoin="round"/>
<path d="M3.25932 15.3133C3.12879 15.4564 3.04265 15.6343 3.01137 15.8254C2.9801 16.0166 3.00504 16.2127 3.08317 16.3899C3.16129 16.5671 3.28923 16.7177 3.45141 16.8236C3.6136 16.9294 3.80305 16.9858 3.99671 16.986H19.9836C20.1772 16.986 20.3667 16.9298 20.529 16.8242C20.6913 16.7186 20.8194 16.5681 20.8977 16.391C20.976 16.2139 21.0012 16.0178 20.9702 15.8267C20.9392 15.6356 20.8533 15.4576 20.723 15.3143C19.394 13.9445 17.9852 12.4887 17.9852 7.99336C17.9852 6.40337 17.3536 4.8785 16.2293 3.75421C15.105 2.62991 13.5801 1.99829 11.9901 1.99829C10.4001 1.99829 8.87528 2.62991 7.75098 3.75421C6.62669 4.8785 5.99507 6.40337 5.99507 7.99336C5.99507 12.4887 4.58523 13.9445 3.25932 15.3133Z" stroke="white" stroke-width="1.99836" stroke-linecap="round" stroke-linejoin="round"/>
</svg>
