<svg width="40" height="40" viewBox="0 0 40 40" fill="none" xmlns="http://www.w3.org/2000/svg">
    <path
        d="M0 14C0 6.26801 6.26801 0 14 0H25.9953C33.7273 0 39.9953 6.26801 39.9953 14V25.9953C39.9953 33.7273 33.7273 39.9953 25.9953 39.9953H14C6.26801 39.9953 0 33.7273 0 25.9953V14Z"
        fill="#7B3306" fill-opacity="0.3" />
    <path
        d="M18.5449 27.4929C18.6911 27.7461 18.9014 27.9563 19.1546 28.1025C19.4078 28.2487 19.695 28.3256 19.9873 28.3256C20.2797 28.3256 20.5669 28.2487 20.8201 28.1025C21.0733 27.9563 21.2835 27.7461 21.4297 27.4929"
        stroke="#FFB900" stroke-width="1.66559" stroke-linecap="round" stroke-linejoin="round" />
    <path
        d="M12.7103 22.7675C12.6015 22.8868 12.5297 23.035 12.5036 23.1943C12.4775 23.3536 12.4983 23.5171 12.5634 23.6648C12.6286 23.8125 12.7352 23.9381 12.8704 24.0263C13.0055 24.1145 13.1634 24.1615 13.3249 24.1616H26.6496C26.811 24.1617 26.9689 24.1148 27.1042 24.0268C27.2395 23.9387 27.3462 23.8133 27.4115 23.6657C27.4768 23.5181 27.4978 23.3547 27.4719 23.1954C27.4461 23.0361 27.3745 22.8877 27.2659 22.7683C26.1582 21.6266 24.984 20.4132 24.984 16.6665C24.984 15.3412 24.4576 14.0703 23.5205 13.1332C22.5834 12.1961 21.3125 11.6697 19.9872 11.6697C18.662 11.6697 17.3911 12.1961 16.454 13.1332C15.5169 14.0703 14.9905 15.3412 14.9905 16.6665C14.9905 20.4132 13.8154 21.6266 12.7103 22.7675Z"
        stroke="#FFB900" stroke-width="1.66559" stroke-linecap="round" stroke-linejoin="round" />
</svg>
