<svg width="40" height="40" viewBox="0 0 40 40" fill="none" xmlns="http://www.w3.org/2000/svg">
<path d="M0 14C0 6.26801 6.26801 0 14 0H25.9953C33.7273 0 39.9953 6.26801 39.9953 14V25.9953C39.9953 33.7273 33.7273 39.9953 25.9953 39.9953H14C6.26801 39.9953 0 33.7273 0 25.9953V14Z" fill="#1C398E" fill-opacity="0.3"/>
<g clip-path="url(#clip0_11_4278)">
<path d="M25.8169 19.1646H14.1578C13.2379 19.1646 12.4922 19.9103 12.4922 20.8301V26.6597C12.4922 27.5796 13.2379 28.3253 14.1578 28.3253H25.8169C26.7368 28.3253 27.4825 27.5796 27.4825 26.6597V20.8301C27.4825 19.9103 26.7368 19.1646 25.8169 19.1646Z" stroke="#51A2FF" stroke-width="1.66559" stroke-linecap="round" stroke-linejoin="round"/>
<path d="M15.8232 19.1646V15.8334C15.8232 14.7291 16.2619 13.6699 17.0428 12.889C17.8237 12.1081 18.8829 11.6694 19.9872 11.6694C21.0916 11.6694 22.1507 12.1081 22.9316 12.889C23.7125 13.6699 24.1512 14.7291 24.1512 15.8334V19.1646" stroke="#51A2FF" stroke-width="1.66559" stroke-linecap="round" stroke-linejoin="round"/>
</g>
<defs>
<clipPath id="clip0_11_4278">
<rect width="19.9871" height="19.9871" fill="white" transform="translate(9.99365 10.0039)"/>
</clipPath>
</defs>
</svg>
