<svg width="20" height="20" viewBox="0 0 20 20" fill="none" xmlns="http://www.w3.org/2000/svg">
    <path
        d="M15.8231 9.16077H4.16398C3.2441 9.16077 2.49839 9.90648 2.49839 10.8264V16.6559C2.49839 17.5758 3.2441 18.3215 4.16398 18.3215H15.8231C16.743 18.3215 17.4887 17.5758 17.4887 16.6559V10.8264C17.4887 9.90648 16.743 9.16077 15.8231 9.16077Z"
        stroke="#4E4E50" stroke-width="1.66559" stroke-linecap="round" stroke-linejoin="round" />
    <path
        d="M5.82957 9.16075V5.82957C5.82957 4.72521 6.26827 3.66609 7.04917 2.88519C7.83007 2.10429 8.88919 1.66559 9.99354 1.66559C11.0979 1.66559 12.157 2.10429 12.9379 2.88519C13.7188 3.66609 14.1575 4.72521 14.1575 5.82957V9.16075"
        stroke="#4E4E50" stroke-width="1.66559" stroke-linecap="round" stroke-linejoin="round" />
</svg>
