<svg width="40" height="40" viewBox="0 0 40 40" fill="none" xmlns="http://www.w3.org/2000/svg">
    <path
        d="M0 14C0 6.26801 6.26801 0 14 0H25.9953C33.7273 0 39.9953 6.26801 39.9953 14V25.9953C39.9953 33.7273 33.7273 39.9953 25.9953 39.9953H14C6.26801 39.9953 0 33.7273 0 25.9953V14Z"
        fill="#DBEAFE" />
    <g clip-path="url(#clip0_11_2870)">
        <path
            d="M25.8167 19.1648H14.1575C13.2377 19.1648 12.4919 19.9105 12.4919 20.8304V26.66C12.4919 27.5798 13.2377 28.3255 14.1575 28.3255H25.8167C26.7366 28.3255 27.4823 27.5798 27.4823 26.66V20.8304C27.4823 19.9105 26.7366 19.1648 25.8167 19.1648Z"
            stroke="#155DFC" stroke-width="1.66559" stroke-linecap="round"
            stroke-linejoin="round" />
        <path
            d="M15.8231 19.1648V15.8337C15.8231 14.7293 16.2618 13.6702 17.0427 12.8893C17.8236 12.1084 18.8827 11.6697 19.9871 11.6697C21.0915 11.6697 22.1506 12.1084 22.9315 12.8893C23.7124 13.6702 24.1511 14.7293 24.1511 15.8337V19.1648"
            stroke="#155DFC" stroke-width="1.66559" stroke-linecap="round"
            stroke-linejoin="round" />
    </g>
    <defs>
        <clipPath id="clip0_11_2870">
            <rect width="19.9871" height="19.9871" fill="white"
                transform="translate(9.99353 10.0042)" />
        </clipPath>
    </defs>
</svg>
