<svg width="40" height="40" viewBox="0 0 40 40" fill="none" xmlns="http://www.w3.org/2000/svg">
    <path
        d="M0 14C0 6.26801 6.26801 0 14 0H25.9953C33.7273 0 39.9953 6.26801 39.9953 14V25.9953C39.9953 33.7273 33.7273 39.9953 25.9953 39.9953H14C6.26801 39.9953 0 33.7273 0 25.9953V14Z"
        fill="#DCFCE7" />
    <g clip-path="url(#clip0_11_2802)">
        <path
            d="M21.5128 23.8018C21.6848 23.8808 21.8786 23.8989 22.0622 23.853C22.2458 23.8071 22.4083 23.7001 22.523 23.5495L22.8186 23.1623C22.9738 22.9554 23.175 22.7875 23.4062 22.6719C23.6375 22.5562 23.8925 22.496 24.1511 22.496H26.6495C27.0912 22.496 27.5149 22.6715 27.8272 22.9839C28.1396 23.2962 28.3151 23.7199 28.3151 24.1616V26.66C28.3151 27.1017 28.1396 27.5254 27.8272 27.8377C27.5149 28.1501 27.0912 28.3256 26.6495 28.3256C22.6738 28.3256 18.861 26.7463 16.0497 23.935C13.2385 21.1238 11.6592 17.3109 11.6592 13.3353C11.6592 12.8935 11.8347 12.4699 12.147 12.1575C12.4594 11.8452 12.883 11.6697 13.3248 11.6697H15.8232C16.2649 11.6697 16.6885 11.8452 17.0009 12.1575C17.3133 12.4699 17.4887 12.8935 17.4887 13.3353V15.8337C17.4887 16.0922 17.4285 16.3473 17.3129 16.5785C17.1973 16.8098 17.0294 17.011 16.8225 17.1661L16.4328 17.4584C16.2799 17.5752 16.1721 17.7412 16.1278 17.9284C16.0835 18.1156 16.1053 18.3124 16.1896 18.4853C17.3278 20.797 19.1997 22.6666 21.5128 23.8018Z"
            stroke="#00A63E" stroke-width="1.66559" stroke-linecap="round"
            stroke-linejoin="round" />
    </g>
    <defs>
        <clipPath id="clip0_11_2802">
            <rect width="19.9871" height="19.9871" fill="white"
                transform="translate(9.99353 10.0042)" />
        </clipPath>
    </defs>
</svg>
