<svg width="40" height="40" viewBox="0 0 40 40" fill="none" xmlns="http://www.w3.org/2000/svg">
    <path
        d="M0 14C0 6.26801 6.26801 0 14 0H25.9953C33.7273 0 39.9953 6.26801 39.9953 14V25.9953C39.9953 33.7273 33.7273 39.9953 25.9953 39.9953H14C6.26801 39.9953 0 33.7273 0 25.9953V14Z"
        fill="#FFE2E2" />
    <g clip-path="url(#clip0_11_2855)">
        <path
            d="M26.6494 20.8306C26.6494 24.9945 23.7347 27.0765 20.2702 28.2841C20.0888 28.3456 19.8917 28.3426 19.7122 28.2758C16.2395 27.0765 13.3247 24.9945 13.3247 20.8306V15.001C13.3247 14.7801 13.4124 14.5683 13.5686 14.4121C13.7248 14.2559 13.9366 14.1682 14.1575 14.1682C15.8231 14.1682 17.9051 13.1688 19.3541 11.903C19.5306 11.7523 19.755 11.6694 19.9871 11.6694C20.2191 11.6694 20.4436 11.7523 20.62 11.903C22.0774 13.1772 24.151 14.1682 25.8166 14.1682C26.0375 14.1682 26.2493 14.2559 26.4055 14.4121C26.5617 14.5683 26.6494 14.7801 26.6494 15.001V20.8306Z"
            stroke="#E7000B" stroke-width="1.66559" stroke-linecap="round"
            stroke-linejoin="round" />
    </g>
    <defs>
        <clipPath id="clip0_11_2855">
            <rect width="19.9871" height="19.9871" fill="white"
                transform="translate(9.99353 10.0042)" />
        </clipPath>
    </defs>
</svg>
