<svg width="16" height="16" viewBox="0 0 16 16" fill="none" xmlns="http://www.w3.org/2000/svg">
    <path
        d="M10.1295 1.99927C10.4811 2.00428 10.8164 2.14799 11.0625 2.39911L13.5948 4.93148C13.846 5.17756 13.9897 5.5129 13.9947 5.86446V12.6619C13.9947 13.0154 13.8543 13.3544 13.6043 13.6043C13.3544 13.8543 13.0154 13.9947 12.6619 13.9947H3.33209C2.97861 13.9947 2.6396 13.8543 2.38964 13.6043C2.13969 13.3544 1.99927 13.0154 1.99927 12.6619V3.33209C1.99927 2.97861 2.13969 2.6396 2.38964 2.38964C2.6396 2.13969 2.97861 1.99927 3.33209 1.99927H10.1295Z"
        stroke="white" stroke-width="1.33282" stroke-linecap="round" stroke-linejoin="round" />
    <path
        d="M11.3289 13.9946V9.32974C11.3289 9.153 11.2587 8.98349 11.1337 8.85852C11.0088 8.73354 10.8393 8.66333 10.6625 8.66333H5.33121C5.15446 8.66333 4.98496 8.73354 4.85998 8.85852C4.73501 8.98349 4.66479 9.153 4.66479 9.32974V13.9946"
        stroke="white" stroke-width="1.33282" stroke-linecap="round" stroke-linejoin="round" />
    <path
        d="M4.66479 1.99927V4.66492C4.66479 4.84166 4.73501 5.01117 4.85998 5.13614C4.98496 5.26112 5.15446 5.33133 5.33121 5.33133H9.99609"
        stroke="white" stroke-width="1.33282" stroke-linecap="round" stroke-linejoin="round" />
</svg>
