<svg width="40" height="40" viewBox="0 0 40 40" fill="none" xmlns="http://www.w3.org/2000/svg">
    <path
        d="M0 14C0 6.26801 6.26801 0 14 0H25.9953C33.7273 0 39.9953 6.26801 39.9953 14V25.9953C39.9953 33.7273 33.7273 39.9953 25.9953 39.9953H14C6.26801 39.9953 0 33.7273 0 25.9953V14Z"
        fill="#312C85" fill-opacity="0.3" />
    <path
        d="M27.4697 20.4025C27.3916 21.8484 26.8964 23.2407 26.044 24.4111C25.1915 25.5815 24.0183 26.48 22.6661 26.9979C21.3139 27.5157 19.8407 27.6309 18.4245 27.3293C17.0083 27.0278 15.7097 26.3225 14.6858 25.2987C13.6619 24.2748 12.9564 22.9764 12.6547 21.5602C12.353 20.144 12.468 18.6708 12.9857 17.3185C13.5035 15.9663 14.4018 14.793 15.5722 13.9404C16.7425 13.0878 18.1347 12.5925 19.5806 12.5143C19.9179 12.496 20.0944 12.8974 19.9154 13.183C19.3165 14.1412 19.0601 15.2741 19.1879 16.3967C19.3158 17.5194 19.8204 18.5656 20.6194 19.3646C21.4183 20.1636 22.4645 20.6682 23.5872 20.796C24.7099 20.9239 25.8427 20.6674 26.8009 20.0686C27.0874 19.8895 27.488 20.0652 27.4697 20.4025Z"
        stroke="#7C86FF" stroke-width="1.66559" stroke-linecap="round" stroke-linejoin="round" />
</svg>
