<svg width="40" height="40" viewBox="0 0 40 40" fill="none" xmlns="http://www.w3.org/2000/svg">
    <path
        d="M0 14C0 6.26801 6.26801 0 14 0H25.9953C33.7273 0 39.9953 6.26801 39.9953 14V25.9953C39.9953 33.7273 33.7273 39.9953 25.9953 39.9953H14C6.26801 39.9953 0 33.7273 0 25.9953V14Z"
        fill="#E0E7FF" />
    <path
        d="M27.4698 20.4025C27.3917 21.8484 26.8965 23.2407 26.0441 24.4111C25.1916 25.5815 24.0184 26.48 22.6662 26.9979C21.3141 27.5157 19.8408 27.6309 18.4246 27.3293C17.0084 27.0278 15.7098 26.3225 14.6859 25.2987C13.662 24.2748 12.9566 22.9764 12.6549 21.5602C12.3532 20.144 12.4681 18.6708 12.9859 17.3185C13.5036 15.9663 14.4019 14.793 15.5723 13.9404C16.7426 13.0878 18.1349 12.5925 19.5807 12.5143C19.918 12.496 20.0945 12.8974 19.9155 13.183C19.3166 14.1412 19.0602 15.2741 19.188 16.3967C19.3159 17.5194 19.8205 18.5656 20.6195 19.3646C21.4185 20.1636 22.4647 20.6682 23.5873 20.796C24.71 20.9239 25.8429 20.6674 26.801 20.0686C27.0875 19.8895 27.4881 20.0652 27.4698 20.4025Z"
        stroke="#4F39F6" stroke-width="1.66559" stroke-linecap="round" stroke-linejoin="round" />
</svg>
