<svg width="64" height="64" viewBox="0 0 64 64" fill="none" xmlns="http://www.w3.org/2000/svg">
    <path
        d="M0 16C0 7.16345 7.16344 0 16 0H47.9967C56.8333 0 63.9967 7.16344 63.9967 16V47.9967C63.9967 56.8333 56.8333 63.9967 47.9967 63.9967H16C7.16345 63.9967 0 56.8333 0 47.9967V16Z"
        fill="#1C398E" fill-opacity="0.3" />
    <path d="M31.9883 20.0029V35.9968" stroke="#51A2FF" stroke-width="2.66565"
        stroke-linecap="round" stroke-linejoin="round" />
    <path d="M38.652 26.6671L31.9879 20.0029L25.3237 26.6671" stroke="#51A2FF"
        stroke-width="2.66565" stroke-linecap="round" stroke-linejoin="round" />
    <path
        d="M43.9835 35.9968V41.3281C43.9835 42.0351 43.7027 42.7131 43.2028 43.213C42.7029 43.7129 42.0248 43.9938 41.3179 43.9938H22.6583C21.9514 43.9938 21.2733 43.7129 20.7734 43.213C20.2735 42.7131 19.9927 42.0351 19.9927 41.3281V35.9968"
        stroke="#51A2FF" stroke-width="2.66565" stroke-linecap="round" stroke-linejoin="round" />
</svg>
