<svg width="40" height="40" viewBox="0 0 40 40" fill="none" xmlns="http://www.w3.org/2000/svg">
    <path
        d="M0 9.99999C0 4.47714 4.47715 0 10 0H29.9953C35.5182 0 39.9953 4.47715 39.9953 10V29.9953C39.9953 35.5182 35.5182 39.9953 29.9953 39.9953H9.99999C4.47714 39.9953 0 35.5182 0 29.9953V9.99999Z"
        fill="#DBEAFE" />
    <g clip-path="url(#clip0_11_2148)">
        <path
            d="M28.315 19.9976H26.2497C25.8858 19.9969 25.5316 20.1153 25.2413 20.3349C24.951 20.5545 24.7407 20.8631 24.6424 21.2135L22.6853 28.1757C22.6727 28.2189 22.6464 28.2569 22.6104 28.2839C22.5744 28.311 22.5305 28.3256 22.4855 28.3256C22.4404 28.3256 22.3966 28.311 22.3606 28.2839C22.3245 28.2569 22.2982 28.2189 22.2856 28.1757L17.6886 11.8196C17.676 11.7763 17.6497 11.7383 17.6136 11.7113C17.5776 11.6843 17.5338 11.6697 17.4887 11.6697C17.4437 11.6697 17.3998 11.6843 17.3638 11.7113C17.3277 11.7383 17.3014 11.7763 17.2888 11.8196L15.3318 18.7818C15.2339 19.1308 15.0248 19.4384 14.7362 19.6579C14.4476 19.8773 14.0953 19.9966 13.7328 19.9976H11.6591"
            stroke="#155DFC" stroke-width="1.66559" stroke-linecap="round"
            stroke-linejoin="round" />
    </g>
    <defs>
        <clipPath id="clip0_11_2148">
            <rect width="19.9871" height="19.9871" fill="white"
                transform="translate(9.99355 10.0042)" />
        </clipPath>
    </defs>
</svg>
